<?xml version="1.0" encoding="UTF-8" standalone="no"?>
<svg
   viewBox="0 0 512 512"
   version="1.1"
   id="svg7796"
   sodipodi:docname="dice-icon.svg"
   inkscape:version="1.2.2 (732a01da63, 2022-12-09)"
   xmlns:inkscape="http://www.inkscape.org/namespaces/inkscape"
   xmlns:sodipodi="http://sodipodi.sourceforge.net/DTD/sodipodi-0.dtd"
   xmlns="http://www.w3.org/2000/svg"
   xmlns:svg="http://www.w3.org/2000/svg">
  <defs
     id="defs7800" />
  <sodipodi:namedview
     id="namedview7798"
     pagecolor="#ffffff"
     bordercolor="#000000"
     borderopacity="0.25"
     inkscape:showpageshadow="2"
     inkscape:pageopacity="0.0"
     inkscape:pagecheckerboard="0"
     inkscape:deskcolor="#d1d1d1"
     showgrid="false"
     inkscape:zoom="1.6875"
     inkscape:cx="156.44444"
     inkscape:cy="213.62963"
     inkscape:window-width="1920"
     inkscape:window-height="1051"
     inkscape:window-x="-9"
     inkscape:window-y="-9"
     inkscape:window-maximized="1"
     inkscape:current-layer="svg7796" />
  <!--! Font Awesome Pro 6.3.0 by @fontawesome - https://fontawesome.com License - https://fontawesome.com/license (Commercial License) Copyright 2023 Fonticons, Inc. -->
  <g
     id="g12007">
    <path
       d="M64.7 125.8l53.2 31.9c7.8 4.7 17.8 2 22.2-5.9L217.6 12.1c3-5.4-.9-12.1-7.1-12.1c-1.6 0-3.2 .5-4.6 1.4L63.9 98.8c-9.6 6.6-9.2 20.9 .8 26.9zM32 171.7V295.3c0 8 10.4 11 14.7 4.4l60-92c5-7.6 2.6-17.8-5.2-22.5L56.2 158C45.6 151.6 32 159.3 32 171.7zM326.4 12.1l77.6 139.6c4.4 7.9 14.5 10.6 22.2 5.9l53.2-31.9c10-6 10.4-20.3 .8-26.9L338.1 1.4c-1.4-.9-3-1.4-4.6-1.4c-6.2 0-10.1 6.7-7.1 12.1zM512 171.7c0-12.4-13.6-20.1-24.2-13.7l-45.3 27.2c-7.8 4.7-10.1 14.9-5.2 22.5l60 92c4.3 6.7 14.7 3.6 14.7-4.4V171.7zm-49.3 246L302.1 436.6c-8.1 .9-14.1 7.8-14.1 15.9v52.8c0 3.7 3 6.8 6.8 6.8c.8 0 1.6-.1 2.4-.4l172.7-64c6.1-2.2 10.1-8 10.1-14.5c0-9.3-8.1-16.5-17.3-15.4zM249.2 512c3.7 0 6.8-3 6.8-6.8V452.6c0-8.1-6.1-14.9-14.1-15.9l-160.6-19c-9.2-1.1-17.3 6.1-17.3 15.4c0 6.5 4 12.3 10.1 14.5l172.7 64c.8 .3 1.6 .4 2.4 .4zM57.7 382.9l170.9 20.2c7.8 .9 13.4-7.5 9.5-14.3l-85.7-150c-5.9-10.4-20.7-10.8-27.3-.8L46.2 358.2c-6.5 9.9-.3 23.3 11.5 24.7zm439.6-24.8L418.9 238.1c-6.5-10-21.4-9.6-27.3 .8L306.2 388.5c-3.9 6.8 1.6 15.2 9.5 14.3l170.1-20c11.8-1.4 18-14.7 11.5-24.6zm-216.9 11l78.4-137.2c6.1-10.7-1.6-23.9-13.9-23.9H199.1c-12.3 0-20 13.3-13.9 23.9l78.4 137.2c3.7 6.4 13 6.4 16.7 0zM190.4 176H353.6c12.2 0 19.9-13.1 14-23.8l-80-144c-2.8-5.1-8.2-8.2-14-8.2h-3.2c-5.8 0-11.2 3.2-14 8.2l-80 144c-5.9 10.7 1.8 23.8 14 23.8z"
       id="path7794"
       style="fill:#000000;fill-opacity:1" />
    <path
       style="fill:#ffa361;fill-opacity:1;stroke-width:5;stroke:#000000;stroke-opacity:1;stroke-dasharray:none"
       d="m 186.36653,175.15408 c -5.14791,-1.57999 -9.52624,-5.99445 -11.01757,-11.10851 -0.83597,-2.86673 -0.89475,-3.99026 -0.34617,-6.61755 C 175.84547,153.3922 255.82852,8.9698447 259.18064,5.4312685 262.94682,1.4555953 265.23322,0.59259259 272,0.59259259 c 6.55383,0 9.09308,0.88795031 12.61725,4.41212281 2.14971,2.1497113 82.93434,147.3213946 84.10776,151.1434346 2.0063,6.53483 -1.63366,14.29786 -8.42871,17.97613 l -2.37037,1.28313 -85.03704,0.10127 c -46.77037,0.0557 -85.70543,-0.10387 -86.52236,-0.3546 z"
       id="path9765" />
    <path
       style="fill:#9b45ff;fill-opacity:1;stroke:#000000;stroke-width:5;stroke-dasharray:none;stroke-opacity:1"
       d="m 36.695786,302.01674 c -4.709157,-2.19468 -4.39949,2.63848 -4.39949,-68.66541 0,-69.60219 -0.133865,-66.93301 3.582161,-71.42599 1.011135,-1.22255 3.085461,-2.95588 4.609614,-3.85185 2.404737,-1.41363 3.403805,-1.62905 7.555179,-1.62905 h 4.78399 l 24.941257,14.9605 c 26.385613,15.82687 28.798133,17.62416 30.275343,22.55467 1.13255,3.78011 0.87194,8.45826 -0.63643,11.42459 -2.4827,4.88242 -61.638654,95.07323 -63.063009,96.14763 -2.119596,1.59881 -4.882628,1.77398 -7.648615,0.48491 z"
       id="path10526" />
    <path
       style="fill:#007ebb;fill-opacity:1;stroke:#000000;stroke-width:5;stroke-dasharray:none;stroke-opacity:1"
       d="m 141.62963,392.59342 c -45.955556,-5.46561 -84.724938,-10.24368 -86.154183,-10.61793 -9.360227,-2.451 -14.194003,-13.51994 -9.635053,-22.06346 2.861825,-5.36309 79.334286,-121.54312 81.595086,-123.96255 5.84082,-6.25059 16.13702,-6.36844 22.03473,-0.2522 1.02482,1.06279 21.54002,36.33235 45.58933,78.37679 42.29509,73.94281 43.7265,76.54484 43.74065,79.5121 0.0165,3.45506 -1.1698,5.53251 -4.42379,7.74716 -1.54349,1.05049 -2.72616,1.31894 -5.57514,1.26546 -1.98885,-0.0373 -41.21607,-4.53975 -87.17163,-10.00537 z"
       id="path10528" />
    <path
       style="fill:#ff92f2;fill-opacity:1;stroke:#000000;stroke-width:5;stroke-dasharray:none;stroke-opacity:1"
       d="m 268.44444,372.7931 c -0.97777,-0.43458 -2.35957,-1.42414 -3.07067,-2.19903 -1.46616,-1.59769 -78.39961,-135.98492 -80.6545,-140.88715 -1.82029,-3.95738 -1.59681,-8.46537 0.63729,-12.85511 1.7511,-3.44072 3.30419,-4.97842 6.93974,-6.87101 l 2.66666,-1.38821 75.81786,-0.15701 c 85.98338,-0.17807 80.03239,-0.49362 85.03507,4.50906 4.18209,4.18209 5.67858,9.5624 4.17017,14.993 -0.69627,2.50672 -79.42301,140.54983 -81.35822,142.65725 -2.5996,2.83094 -6.74597,3.72599 -10.1834,2.19821 z"
       id="path10530" />
    <path
       style="fill:#00d384;fill-opacity:1;stroke:#000000;stroke-width:5;stroke-dasharray:none;stroke-opacity:1"
       d="m 311.08173,401.83313 c -2.12462,-0.92543 -4.85749,-3.99145 -5.36692,-6.02118 -0.1974,-0.78652 -0.25993,-2.43264 -0.13894,-3.65803 0.30414,-3.08036 86.72911,-154.56481 89.53253,-156.93132 2.94689,-2.48764 6.31833,-3.78773 9.85988,-3.80218 4.47253,-0.0182 7.42895,1.01668 10.41642,3.64635 1.82057,1.60254 14.10024,19.91193 41.95907,62.56236 21.6619,33.16324 39.98852,61.48608 40.72584,62.93964 2.72231,5.36679 1.43581,12.64507 -3.03208,17.15367 -4.40002,4.44013 -0.0179,3.75248 -94.44494,14.82051 -47.58518,5.57758 -86.78518,10.12672 -87.11111,10.10919 -0.32592,-0.0175 -1.40581,-0.38608 -2.39975,-0.81901 z"
       id="path10532" />
    <path
       style="fill:#b3f700;fill-opacity:1;stroke:#000000;stroke-width:5;stroke-dasharray:none;stroke-opacity:1"
       d="m 500.62424,302.15004 c -1.52879,-0.75386 -7.85077,-10.06743 -32.76609,-48.2711 -16.97949,-26.03536 -31.2604,-48.26705 -31.73535,-49.40376 -1.04214,-2.49418 -1.11888,-7.33726 -0.16664,-10.51557 1.47722,-4.93051 3.88973,-6.7278 30.27534,-22.55467 l 24.94126,-14.9605 h 4.78399 c 4.15137,0 5.15044,0.21542 7.55518,1.62905 1.52415,0.89597 3.59848,2.6293 4.60961,3.85185 3.71635,4.49337 3.58216,1.81409 3.58216,71.52479 0,60.32598 -0.0534,63.55688 -1.08282,65.47629 -1.1961,2.23025 -4.30572,4.19207 -6.61164,4.1712 -0.81989,-0.007 -2.34314,-0.43383 -3.385,-0.94758 z"
       id="path10534" />
    <path
       style="fill:#ffe25e;fill-opacity:1;stroke:#000000;stroke-width:5;stroke-dasharray:none;stroke-opacity:1"
       d="m 413.15569,158.78179 c -6.06226,-1.93726 -5.1717,-0.49796 -47.75756,-77.184243 -21.59346,-38.884313 -39.40325,-71.57637 -39.57732,-72.6490154 -0.93816,-5.7812018 6.24709,-10.5648406 11.34817,-7.5551333 3.4303,2.0239311 141.41679,96.6527887 144.10857,98.8272817 6.73856,5.4436 7.2999,16.29988 1.15783,22.3925 -1.4855,1.47353 -13.01334,8.72343 -29.40242,18.49126 -14.82739,8.83708 -27.85556,16.52611 -28.95149,17.08674 -2.78564,1.42501 -7.5147,1.68065 -10.92578,0.59061 z"
       id="path10536" />
    <path
       style="fill:#ea0064;fill-opacity:1;stroke:#000000;stroke-width:5;stroke-dasharray:none;stroke-opacity:1"
       d="m 121.81845,159.04806 c -2.201,-0.67016 -55.27634,-32.2507 -58.737585,-34.94965 -4.296912,-3.35058 -6.765125,-10.5343 -5.381582,-15.66308 1.701747,-6.30834 -1.494183,-3.91015 76.273947,-57.235211 39.73694,-27.247342 72.88743,-49.8772973 73.66775,-50.28879017 4.53511,-2.39154403 11.38518,2.81794387 10.54151,8.01683527 -0.31344,1.9315009 -77.4102,141.5556959 -80.13813,145.1322059 -3.19008,4.1824 -10.99309,6.58098 -16.22591,4.98769 z"
       id="path10538" />
    <path
       style="fill:#00caea;fill-opacity:1;stroke:#000000;stroke-width:5;stroke-dasharray:none;stroke-opacity:1"
       d="M 162.37037,479.98589 C 115.43704,462.57661 75.862745,447.88678 74.4275,447.34181 c -3.262771,-1.23887 -6.863583,-4.44729 -8.526888,-7.59768 -1.996717,-3.7819 -1.814007,-9.77727 0.421191,-13.82077 2.766966,-5.00548 7.367991,-7.84929 12.699429,-7.84929 3.748183,0 162.466398,18.75937 165.398688,19.54896 4.53842,1.22207 8.6948,5.2621 10.40737,10.11603 1.32118,3.74462 1.30102,57.86906 -0.0225,60.42848 -0.99938,1.93259 -3.65358,3.55327 -5.73832,3.50387 -0.7495,-0.0178 -39.76275,-14.27625 -86.69608,-31.68552 z"
       id="path10540" />
    <path
       style="fill:#00fdeb;fill-opacity:1;stroke:#000000;stroke-width:5;stroke-dasharray:none;stroke-opacity:1"
       d="m 292.00375,511.09403 c -0.73128,-0.294 -1.86361,-1.41043 -2.51631,-2.48096 -1.14336,-1.87529 -1.18679,-2.97936 -1.18893,-30.22047 -0.002,-26.99697 0.0523,-28.41979 1.20486,-31.50026 1.43321,-3.83061 5.0396,-7.42971 8.90176,-8.88379 2.67506,-1.00714 160.94158,-19.94814 166.45902,-19.92146 5.06734,0.0245 10.59061,3.60246 13.24425,8.57958 1.6719,3.13579 1.7649,9.71868 0.17999,12.74074 -1.48107,2.82406 -4.38047,5.8117 -6.88098,7.09042 -3.95092,2.02043 -175.21928,65.20571 -176.64352,65.16831 -0.7868,-0.0207 -2.02887,-0.27811 -2.76014,-0.57211 z"
       id="path10542" />
  </g>
</svg>
