<?xml version="1.0" encoding="UTF-8" standalone="no"?>
<svg
   xmlns:dc="http://purl.org/dc/elements/1.1/"
   xmlns:cc="http://creativecommons.org/ns#"
   xmlns:rdf="http://www.w3.org/1999/02/22-rdf-syntax-ns#"
   xmlns:svg="http://www.w3.org/2000/svg"
   xmlns="http://www.w3.org/2000/svg"
   xmlns:sodipodi="http://sodipodi.sourceforge.net/DTD/sodipodi-0.dtd"
   xmlns:inkscape="http://www.inkscape.org/namespaces/inkscape"
   id="svg865"
   version="1.1"
   viewBox="0 0 480 512"
   role="img"
   class="svg-inline--fa fa-dice-d20 fa-w-15"
   data-icon="dice-d20"
   data-prefix="fas"
   focusable="false"
   aria-hidden="true"
   sodipodi:docname="d20-blue.svg"
   inkscape:version="0.92.4 5da689c313, 2019-01-14">
  <sodipodi:namedview
     pagecolor="#ffffff"
     bordercolor="#666666"
     borderopacity="1"
     objecttolerance="10"
     gridtolerance="10"
     guidetolerance="10"
     inkscape:pageopacity="0"
     inkscape:pageshadow="2"
     inkscape:window-width="1436"
     inkscape:window-height="851"
     id="namedview13"
     showgrid="false"
     inkscape:zoom="0.93309582"
     inkscape:cx="82.796438"
     inkscape:cy="225.68771"
     inkscape:window-x="0"
     inkscape:window-y="47"
     inkscape:window-maximized="0"
     inkscape:current-layer="svg865" />
  <metadata
     id="metadata871">
    <rdf:RDF>
      <cc:Work
         rdf:about="">
        <dc:format>image/svg+xml</dc:format>
        <dc:type
           rdf:resource="http://purl.org/dc/dcmitype/StillImage" />
        <dc:title></dc:title>
      </cc:Work>
    </rdf:RDF>
  </metadata>
  <defs
     id="defs869">
    <marker
       style="overflow:visible"
       id="marker1377"
       refX="0.0"
       refY="0.0"
       orient="auto">
      <path
         transform="scale(0.8) translate(12.5,0)"
         style="fill-rule:evenodd;stroke:#ffffff;stroke-width:1pt;stroke-opacity:0.98760328;fill:#fbfff8;fill-opacity:0"
         d="M 0.0,0.0 L 5.0,-5.0 L -12.5,0.0 L 5.0,5.0 L 0.0,0.0 z "
         id="path1375" />
    </marker>
    <marker
       style="overflow:visible"
       id="marker1207"
       refX="0.0"
       refY="0.0"
       orient="auto">
      <path
         transform="scale(0.8) translate(12.5,0)"
         style="fill-rule:evenodd;stroke:#ffffff;stroke-width:1pt;stroke-opacity:0.98760328;fill:#fbfff8;fill-opacity:0"
         d="M 0.0,0.0 L 5.0,-5.0 L -12.5,0.0 L 5.0,5.0 L 0.0,0.0 z "
         id="path1205" />
    </marker>
    <marker
       style="overflow:visible"
       id="Arrow1Lstart"
       refX="0.0"
       refY="0.0"
       orient="auto">
      <path
         transform="scale(0.8) translate(12.5,0)"
         style="fill-rule:evenodd;stroke:#ffffff;stroke-width:1pt;stroke-opacity:0.98760328;fill:#fbfff8;fill-opacity:0"
         d="M 0.0,0.0 L 5.0,-5.0 L -12.5,0.0 L 5.0,5.0 L 0.0,0.0 z "
         id="path929" />
    </marker>
  </defs>
  <path
     style="opacity:1;fill:#004080;fill-opacity:1;stroke:none;stroke-width:14.415;stroke-linecap:butt;stroke-linejoin:round;stroke-miterlimit:4;stroke-dasharray:none;stroke-opacity:0.98760328;paint-order:normal"
     id="path863"
     d="M 111.25598,217.38607 9.819369,367.20089 c -2.95997,4.80515 0.0961,11.05184 5.698902,11.66689 L 215.66218,400.0777 Z M 15.787359,313.84456 88.143236,196.26266 14.48997,152.07454 c -2.565948,-1.53765 -5.823836,0.30753 -5.823836,3.29633 v 156.46514 c 0,3.87295 5.083844,5.31449 7.121225,2.00855 z m 10.417554,103.95451 186.824047,84.24381 c 5.09345,2.35452 10.90768,-1.37427 10.90768,-6.97707 V 431.95503 L 28.319177,410.52408 c -4.276579,-0.48051 -5.987211,5.37215 -2.114264,7.27499 z M 104.25969,170.065 181.07474,32.695516 c 4.17087,-6.784865 -3.45009,-14.655693 -10.35989,-10.705863 L 25.78206,116.75672 c -2.373741,1.55687 -2.296859,5.05502 0.124934,6.51578 z m 135.05341,9.78328 H 344.26708 L 252.41193,18.030213 c -3.00802,-4.882027 -8.05343,-7.323041 -13.09883,-7.323041 -5.0454,0 -10.0908,2.441014 -13.09882,7.323041 L 134.35912,179.84828 Z m 224.82314,-27.77374 -73.65327,44.19773 72.35588,117.5819 c 2.02777,3.30594 7.12122,1.8644 7.12122,-2.01816 V 155.37087 c 0,-2.9888 -3.25789,-4.83398 -5.82383,-3.29633 z m -89.76973,17.99046 78.3527,-46.80211 c 2.4314,-1.46076 2.49868,-4.95891 0.12493,-6.51578 L 307.91135,21.989653 c -6.90979,-3.94983 -14.53075,3.920998 -10.35989,10.705863 z m 75.94052,240.45908 -195.61746,21.42134 v 63.11078 c 0,5.61241 5.81422,9.33159 10.90768,6.97707 l 186.82404,-84.24381 c 3.87295,-1.89323 2.16232,-7.74589 -2.11426,-7.26538 z M 367.37022,217.38607 262.97364,400.0777 463.11755,378.86778 c 5.60279,-0.62466 8.65887,-6.86174 5.6989,-11.66689 z M 239.3131,210.60121 h -96.51615 l 96.51615,168.90085 96.51615,-168.90085 z"
     inkscape:connector-curvature="0" />
</svg>
